# AST/ASF file generated using VICON BodyLanguage
# -----------------------------------------------
:version 1.10
:name VICON
:units
  mass 1.0
  length 0.45
  angle deg
:documentation
   .ast/.asf automatically generated from VICON data using
   VICON BodyBuilder and BodyLanguage model FoxedUp or BRILLIANT.MOD
:root
   order TX TY TZ RX RY RZ
   axis XYZ
   position 0 0 0  
   orientation 0 0 0 
:bonedata
  begin
     id 1 
     name lhipjoint
     direction 0.653368 -0.678499 0.335782 
     length 2.51848 
     axis 0 0 0  XYZ
  end
  begin
     id 2 
     name lfemur
     direction 0.34202 -0.939693 0  
     length 6.57749  
     axis 0 0 20  XYZ
    dof rx ry rz
    limits (-160.0 20.0)
           (-70.0 70.0)
           (-60.0 70.0)
  end
  begin
     id 3 
     name ltibia
     direction 0.34202 -0.939693 0   
     length 7.94618   
     axis 0 0 20   XYZ
    dof rx
    limits (-10.0 170.0)
  end
  begin
     id 4 
     name lfoot
     direction 0.0811271 -0.222895 0.971461   
     length 2.31339   
     axis -90 7.62852e-016 20   XYZ
    dof rx rz
    limits (-45.0 90.0)
           (-70.0 20.0)
  end
  begin
     id 5 
     name ltoes
     direction 1.53568e-011 -4.21885e-011 1   
     length 1.15935   
     axis -90 7.62852e-016 20   XYZ
    dof rx
    limits (-90.0 20.0)
  end
  begin
     id 6 
     name rhipjoint
     direction -0.640058 -0.688614 0.340788   
     length 2.48149  
     axis 0 0 0  XYZ 
  end
  begin
     id 7 
     name rfemur
     direction -0.34202 -0.939693 0   
     length 6.57875   
     axis 0 0 -20   XYZ
    dof rx ry rz
    limits (-160.0 20.0)
           (-70.0 70.0)
           (-70.0 60.0)
  end
  begin
     id 8 
     name rtibia
     direction -0.34202 -0.939693 0   
     length 7.977   
     axis 0 0 -20   XYZ
    dof rx
    limits (-10.0 170.0)
 end
 begin
     id 9 
     name rfoot
     direction -0.0979793 -0.269196 0.958089   
     length 2.19857  
     axis -90 -7.62852e-016 -20   XYZ
    dof rx rz
    limits (-45.0 90.0)
           (-20.0 70.0)
  end
  begin
     id 10 
     name rtoes
     direction -1.53556e-011 -4.21868e-011 1   
     length 1.09838   
     axis -90 -7.62852e-016 -20   XYZ
    dof rx
    limits (-90.0 20.0)
  end
  begin
     id 11 
     name lowerback
     direction 0.0149039 0.998517 -0.0523597   
     length 2.10809   
     axis 0 0 0   XYZ
    dof rx ry rz
    limits (-20.0 45.0)
           (-30.0 30.0)
           (-30.0 30.0)
  end
  begin
     id 12 
     name upperback
     direction -0.00882659 0.999418 -0.0329624   
     length 2.1102   
     axis 0 0 0   XYZ
    dof rx ry rz
    limits (-20.0 45.0)
           (-30.0 30.0)
           (-30.0 30.0)
  end
  begin
     id 13 
     name thorax
     direction -0.0165585 0.999826 -0.0085833   
     length 2.11039   
     axis 0 0 0   XYZ
    dof rx ry rz
    limits (-20.0 45.0)
           (-30.0 30.0)
           (-30.0 30.0)
  end
  begin
     id 14 
     name lowerneck
     direction -0.0130877 0.999911 0.00260353   
     length 1.73253   
     axis 0 0 0   XYZ
    dof rx ry rz
    limits (-20.0 45.0)
           (-30.0 30.0)
           (-30.0 30.0)
  end
  begin
     id 15 
     name upperneck
     direction -0.0348454 0.928205 -0.370435   
     length 1.66692   
     axis 0 0 0   XYZ
    dof rx ry rz
    limits (-20.0 45.0)
           (-30.0 30.0)
           (-30.0 30.0)
  end
  begin
     id 16
     name head
     direction -0.00807754 0.992494 -0.122026  
     length 1.72765  
     axis 0 0 0   XYZ
    dof rx ry rz
    limits (-20.0 45.0)
           (-30.0 30.0)
           (-30.0 30.0)
  end
  begin
     id 17 
     name lclavicle
     direction 0.987582 0.144023 0.0627671  
     length 3.49235  
     axis 0 0 0   XYZ
    dof ry rz
    limits (-20.0 10.0)
           (0.0 20.0)
  end
  begin
     id 18 
     name lhumerus
     direction 1 -4.48958e-011 -1.45183e-018   
     length 5.41917   
     axis 180 -30 -90   XYZ
    dof rx ry rz
    limits (-60.0 90.0)
           (-90.0 90.0)
           (-90.0 90.0)
  end
  begin
     id 19
     name lradius
     direction 1 -4.48999e-011 5.75106e-027   
     length 2.44373   
     axis 180 -30 -90   XYZ
    dof rx
    limits (-10.0 170.0)
  end
  begin
     id 20
     name lwrist
     direction 1 -4.48987e-011 1.53461e-026   
     length 1.22186   
     axis -1.09697e-014 90 90   XYZ
    dof ry
    limits (-180.0 0.0)
 end
  begin
     id 21 
     name lhand
     direction 1 -4.48881e-011 3.06923e-026   
     length 0.727502   
     axis -1.95843e-014 90 90   XYZ
    dof rx rz
    limits (-90.0 90.0)
           (-45.0 45.0)
  end
  begin
     id 22 
     name lfingers
     direction 1 -4.48907e-011 6.13845e-026   
     length 0.586531   
     axis -3.91686e-014 90 90   XYZ
    dof rx
    limits (0.0 90.0)
  end
  begin
     id 23
     name lthumb
     direction 0.707107 -6.3487e-011 0.707107   
     length 0.842145   
     axis -90 45 2.85299e-015   XYZ
    dof rx rz
    limits (-45.0 45.0)
           (-45.0 45.0)
  end
  begin
     id 24 
     name rclavicle
     direction -0.980998 0.169556 0.0943023   
     length 3.29272  
     axis 0 0 0   XYZ 
    dof ry rz
    limits (-10.0 20.0)
           (-20.0 0.0)
  end
  begin
     id 25 
     name rhumerus
     direction -1 -1.83355e-005 2.45537e-005  
     length 5.58976   
     axis 180 30 90   XYZ
    dof rx ry rz
    limits (-90.0 60.0)
           (-90.0 90.0)
           (-90.0 90.0)
  end
  begin
     id 26 
     name rradius
     direction -1 -4.48967e-011 5.97228e-027   
     length 2.4806   
     axis 180 30 90   XYZ
    dof rx
    limits (-10.0 170.0)
  end
  begin
     id 27 
     name rwrist
     direction -1 -4.48963e-011 1.53461e-026   
     length 1.2403   
     axis -1.09697e-014 -90 -90   XYZ
    dof ry
    limits (-180.0 0.0)
  end
  begin
     id 28
     name rhand
     direction -1 -4.48881e-011 3.06923e-026   
     length 0.816009   
     axis -1.95843e-014 -90 -90   XYZ
    dof rx rz
    limits (-90.0 90.0)
           (-45.0 45.0)
  end
  begin
     id 29
     name rfingers
     direction -1 -4.49018e-011 6.13845e-026   
     length 0.657887   
     axis -3.91686e-014 -90 -90   XYZ
    dof rx
    limits (0.0 90.0)
  end
  begin
     id 30
     name rthumb
     direction -0.707107 -6.34872e-011 0.707107   
     length 0.944599   
     axis -90 -45 -2.85299e-015   XYZ
    dof rx rz
    limits (-45.0 45.0)
           (-45.0 45.0)
  end
:hierarchy
  begin
    root lhipjoint rhipjoint lowerback
    lhipjoint lfemur
    lfemur ltibia
    ltibia lfoot
    lfoot ltoes
    rhipjoint rfemur
    rfemur rtibia
    rtibia rfoot
    rfoot rtoes
    lowerback upperback
    upperback thorax
    thorax lowerneck lclavicle rclavicle
    lowerneck upperneck
    upperneck head
    lclavicle lhumerus
    lhumerus lradius
    lradius lwrist
    lwrist lhand lthumb
    lhand lfingers
    rclavicle rhumerus
    rhumerus rradius
    rradius rwrist
    rwrist rhand rthumb
    rhand rfingers
  end

#!OML:ASF F:\VICON\USERDATA\INSTALL\rory3\rory3.ASF
:FULLY-SPECIFIED
:DEGREES
1
root -1.44698 16.3473 28.7212 -153.484 5.67322 -177.659
lowerback 1.45506 -0.876554 0.279256
upperback -5.64433 -0.898043 0.223757
thorax -6.68074 -0.342919 0.128899
lowerneck -22.1371 1.83919 0.716726
upperneck 19.131 2.59518 -0.742264
head 9.73295 1.20774 0.00881234
rclavicle -4.87022e-015 4.37326e-015
rhumerus -48.6754 26.3705 -104.748
rradius 80.0272
rwrist -7.69469
rhand -4.75358 18.6265
rfingers 7.12502
rthumb 21.0302 -10.2532
lclavicle -4.87022e-015 4.37326e-015
lhumerus -54.0564 -47.3028 113.975
lradius 69.6401
lwrist -23.491
lhand -20.5808 2.88232
lfingers 7.12502
lthumb 5.77906 32.7835
rfemur -65.9488 3.17139 25.5326
rtibia 52.5556
rfoot -13.9583 -13.177
rtoes -1.53364
lfemur -32.3624 -5.19426 -22.5664
ltibia 41.6365
lfoot -41.034 19.0164
ltoes -18.1531
2
root -1.43742 16.3575 28.5732 -153.367 5.77436 -177.787
lowerback 1.45588 -1.06537 -0.0584938
upperback -6.00083 -1.12781 0.336739
thorax -7.05299 -0.418481 0.453932
lowerneck -22.1853 2.01169 0.6959
upperneck 19.4477 2.88374 -0.842384
head 9.85773 1.33048 0.0228197
rclavicle 1.40143e-014 8.34896e-015
rhumerus -47.9177 25.705 -104.139
rradius 77.2888
rwrist -7.27091
rhand -5.70414 18.9578
rfingers 7.12502
rthumb 20.1167 -10.0207
lclavicle 1.40143e-014 8.34896e-015
lhumerus -52.9123 -47.8878 114.231
lradius 66.373
lwrist -24.1976
lhand -19.9648 3.77121
lfingers 7.12502
lthumb 6.37379 33.6553
rfemur -66.6956 3.95526 24.5936
rtibia 50.4458
rfoot -12.334 -13.0807
rtoes -2.2824
lfemur -31.3237 -5.24706 -22.7922
ltibia 40.5043
lfoot -40.9449 19.4194
ltoes -18.2924
3
root -1.43361 16.3621 28.4263 -153.344 5.66327 -177.928
lowerback 1.04266 -1.24405 -0.0984407
upperback -5.92837 -1.37071 0.302825
thorax -6.73392 -0.538302 0.449923
lowerneck -22.6784 2.1609 0.75574
upperneck 19.6106 3.05951 -0.826576
head 10.0063 1.41164 0.0506766
rclavicle 1.74931e-014 3.18055e-015
rhumerus -46.4873 24.8635 -103.192
rradius 74.6823
rwrist -6.57078
rhand -5.69693 18.5654
rfingers 7.12502
rthumb 20.1237 -10.4124
lclavicle 1.74931e-014 3.18055e-015
lhumerus -50.7808 -49.184 113.656
lradius 62.709
lwrist -24.7761
lhand -19.0715 4.07749
lfingers 7.12502
lthumb 7.23609 33.9338
rfemur -67.442 4.49895 23.6768
rtibia 48.5927
rfoot -10.4974 -13.1807
rtoes -2.31584
lfemur -30.2105 -5.46886 -22.9635
ltibia 39.4201
lfoot -40.9926 19.4861
ltoes -17.7117
4
root -1.43104 16.3662 28.2862 -153.401 5.20233 -178.031
lowerback 1.06849 -1.47604 0.0400073
upperback -6.014 -1.6679 0.29034
thorax -6.84306 -0.689016 0.381344
lowerneck -23.1739 2.24653 0.932134
upperneck 19.9878 3.12597 -0.83751
head 10.2349 1.45015 0.0363721
rclavicle 6.4605e-015 -7.95139e-016
rhumerus -45.2719 23.8711 -102.219
rradius 72.1062
rwrist -6.15276
rhand -5.67406 17.7678
rfingers 7.12502
rthumb 20.1457 -11.2076
lclavicle 6.4605e-015 -7.95139e-016
lhumerus -49.0493 -50.5495 113.498
lradius 58.952
lwrist -25.6159
lhand -17.7688 4.41663
lfingers 7.12502
lthumb 8.49346 34.2258
rfemur -68.1043 4.87364 22.8001
rtibia 46.8377
rfoot -8.49068 -13.6542
rtoes -0.438788
lfemur -29.0386 -5.91704 -22.9314
ltibia 38.2752
lfoot -40.9681 19.3653
ltoes -16.9833
5
root -1.41768 16.3602 28.1639 -153.047 4.98399 -178.443
lowerback 1.0382 -1.71025 -0.415932
upperback -6.46202 -1.95825 0.271215
thorax -7.28921 -0.782525 0.640173
lowerneck -23.3638 2.34016 1.08184
upperneck 20.445 3.22862 -0.846627
head 10.4388 1.5098 0.0310418
rclavicle 1.39149e-014 4.37326e-015
rhumerus -44.2364 23.0126 -101.266
rradius 69.0558
rwrist -6.00158
rhand -6.40036 17.5589
rfingers 7.12502
rthumb 19.4475 -11.4886
lclavicle 1.39149e-014 4.37326e-015
lhumerus -47.2204 -51.3593 113.172
lradius 55.18
lwrist -26.4952
lhand -16.0335 4.40472
lfingers 7.12502
lthumb 10.1678 34.139
rfemur -69.5184 5.60916 21.1932
rtibia 45.3069
rfoot -6.44969 -14.8901
rtoes 1.4795
lfemur -28.4891 -6.23064 -23.2201
ltibia 37.1612
lfoot -40.5972 19.4464
ltoes -17.1303
6
root -1.41253 16.3627 28.0049 -152.908 4.71996 -178.855
lowerback 0.578306 -1.96305 -0.697091
upperback -6.60612 -2.28099 0.280764
thorax -7.1611 -0.913629 0.816245
lowerneck -23.7806 2.43039 0.957402
upperneck 20.8822 3.38229 -0.73217
head 10.6713 1.58248 0.125699
rclavicle 3.85642e-014 3.97569e-016
rhumerus -42.7919 22.2986 -100.026
rradius 65.5903
rwrist -5.97891
rhand -7.40824 18.3148
rfingers 7.12502
rthumb 18.4782 -10.8276
lclavicle 3.85642e-014 3.97569e-016
lhumerus -44.6855 -52.0721 112.286
lradius 51.4674
lwrist -27.2541
lhand -14.5114 4.74457
lfingers 7.12502
lthumb 11.6359 34.4015
rfemur -70.5683 5.65013 20.1491
rtibia 44.06
rfoot -4.35209 -15.7245
rtoes -0.00192743
lfemur -27.4686 -6.39095 -23.6261
ltibia 35.9975
lfoot -40.097 19.7367
ltoes -17.8885
7
root -1.40542 16.3556 27.8472 -152.9 4.75514 -178.996
lowerback 0.153575 -2.02604 -0.925759
upperback -6.56196 -2.36502 0.288058
thorax -6.85607 -0.942381 0.941053
lowerneck -24.4447 2.46985 0.82602
upperneck 21.2107 3.42341 -0.514717
head 10.9069 1.61061 0.243443
rclavicle 1.41137e-014 9.54166e-015
rhumerus -41.0191 21.4694 -98.5512
rradius 62.1032
rwrist -6.01645
rhand -7.54034 18.2465
rfingers 7.12502
rthumb 18.3511 -10.9079
lclavicle 1.41137e-014 9.54166e-015
lhumerus -41.8274 -53.0346 110.99
lradius 47.8578
lwrist -28.6861
lhand -13.2525 5.24953
lfingers 7.12502
lthumb 12.8498 34.834
rfemur -71.4393 5.98317 19.3731
rtibia 43.0332
rfoot -3.14709 -16.5803
rtoes 2.42345
lfemur -26.2878 -6.40613 -23.8748
ltibia 34.8493
lfoot -39.8502 20.0629
ltoes -18.2383
8
root -1.39926 16.3466 27.6803 -153.066 4.86214 -179.1
lowerback 0.0720993 -2.04839 -1.06472
upperback -6.83969 -2.36967 0.227559
thorax -7.10384 -0.919413 0.956486
lowerneck -24.2846 2.43461 0.801002
upperneck 21.6545 3.37676 -0.347969
head 11.0386 1.61763 0.304712
rclavicle -3.19049e-014 -8.74653e-015
rhumerus -40.1151 20.3405 -97.2873
rradius 58.2874
rwrist -5.6471
rhand -7.60243 19.2284
rfingers 7.12502
rthumb 18.2913 -9.93158
lclavicle -3.19049e-014 -8.74653e-015
lhumerus -39.7787 -53.5602 110.13
lradius 44.2142
lwrist -30.879
lhand -11.0723 5.22975
lfingers 7.12502
lthumb 14.9508 34.6701
rfemur -72.0825 6.14553 18.9177
rtibia 42.272
rfoot -2.44214 -17.1018
rtoes 6.8969
lfemur -24.8588 -6.41219 -24.1392
ltibia 33.7561
lfoot -39.8955 20.0927
ltoes -17.8156
9
root -1.39357 16.3314 27.5124 -153.531 4.89854 -179.263
lowerback 0.541586 -2.13003 -1.23133
upperback -7.31664 -2.45274 0.189872
thorax -7.88579 -0.919198 1.03819
lowerneck -23.4895 2.37797 0.778663
upperneck 22.1194 3.34647 -0.234098
head 11.0622 1.63913 0.342832
rclavicle 3.61788e-014 4.37326e-015
rhumerus -39.7363 19.2398 -96.1024
rradius 54.6109
rwrist -5.31661
rhand -7.97559 20.154
rfingers 7.12502
rthumb 17.9323 -9.03932
lclavicle 3.61788e-014 4.37326e-015
lhumerus -38.299 -53.5725 109.532
lradius 40.9462
lwrist -33.2114
lhand -9.0527 6.01144
lfingers 7.12502
lthumb 16.8957 35.2965
rfemur -72.3696 6.08419 18.6909
rtibia 41.75
rfoot -1.87074 -17.4021
rtoes 8.17967
lfemur -23.1392 -6.41536 -24.4787
ltibia 32.7632
lfoot -39.9355 20.2382
ltoes -17.9265
10
root -1.38231 16.2977 27.3735 -153.49 4.68867 -179.695
lowerback 0.575238 -2.33584 -1.66032
upperback -7.66665 -2.71103 0.163474
thorax -8.2618 -0.990879 1.27349
lowerneck -23.4704 2.38985 0.873906
upperneck 22.5225 3.37678 -0.28563
head 11.2128 1.66193 0.319152
rclavicle 1.88845e-014 7.95139e-016
rhumerus -38.5626 18.4308 -94.605
rradius 50.8301
rwrist -5.14045
rhand -8.03877 17.9666
rfingers 7.12502
rthumb 17.8715 -11.2322
lclavicle 1.88845e-014 7.95139e-016
lhumerus -35.44 -53.4484 107.626
lradius 37.7947
lwrist -35.2968
lhand -7.6879 6.94674
lfingers 7.12502
lthumb 18.2091 36.1144
rfemur -73.3316 5.66005 18.3427
rtibia 41.51
rfoot -1.50122 -17.9377
rtoes 7.14099
lfemur -22.195 -6.55121 -24.8935
ltibia 31.8372
lfoot -39.676 20.2929
ltoes -17.8372
